<svg version="1.1" id="Layer_1" xmlns="http://www.w3.org/2000/svg" xmlns:xlink="http://www.w3.org/1999/xlink" x="0px" y="0px" width="100%" viewBox="0 0 400 400" enable-background="new 0 0 400 400" xml:space="preserve">

<path fill="#445465" opacity="1.000000" stroke="none" d="
M80.567917,213.402695 
	C72.008324,198.118637 64.714867,182.667068 61.807274,165.623047 
	C55.980106,131.464706 63.580448,100.755066 85.881393,73.854912 
	C106.136154,49.422935 132.740433,36.431229 163.260834,30.563770 
	C196.372879,24.198072 228.793365,26.363430 259.748474,40.490017 
	C293.788147,56.024292 313.053986,83.527184 321.787750,119.166405 
	C324.476990,130.140045 324.388458,141.232788 323.004120,152.364014 
	C322.267181,158.289673 322.887604,163.649384 326.631927,168.862213 
	C332.910492,177.603195 338.551178,186.810867 344.286957,195.931152 
	C352.560303,209.086227 350.318176,217.029312 336.549561,224.095901 
	C329.617065,227.653931 330.203857,227.579147 331.167816,235.143768 
	C331.692657,239.262589 329.826019,243.685516 329.042053,247.972046 
	C328.674774,249.980103 327.559052,252.227722 328.100403,253.953323 
	C329.589233,258.699127 328.754425,262.976593 326.129425,266.767365 
	C323.527893,270.524384 322.401367,274.399414 322.737000,278.886383 
	C322.922882,281.371674 322.551392,283.902161 322.779877,286.380127 
	C324.166992,301.424988 310.090546,311.898499 298.863098,312.758667 
	C289.665344,313.463287 280.348633,312.670288 271.086914,312.448944 
	C268.597717,312.389496 266.121582,311.886230 263.630890,311.770447 
	C252.060822,311.232574 248.501907,313.538086 245.285492,324.680023 
	C241.464600,337.915894 238.653229,351.350006 238.603302,365.252808 
	C238.567230,375.296539 236.139114,376.897003 226.008530,375.012482 
	C193.088577,368.888519 160.136475,362.937469 127.212563,356.834564 
	C117.112808,354.962402 107.050339,352.880493 96.996658,350.771332 
	C90.653542,349.440582 89.908409,347.988159 91.577873,341.970856 
	C95.872284,326.492371 100.533783,311.098297 104.244812,295.479523 
	C109.588463,272.989471 105.197098,251.961746 92.898071,232.517014 
	C88.910530,226.212708 84.810097,219.979813 80.567917,213.402695 
M148.294357,120.801788 
	C148.915878,120.248375 149.559677,119.717865 150.155655,119.138199 
	C165.318802,104.389992 180.380966,89.536095 195.681900,74.932343 
	C202.033752,68.869896 211.193527,69.578568 217.172256,75.653038 
	C222.146027,80.706497 221.990891,91.083138 216.435181,96.332710 
	C202.149368,109.831306 188.472015,123.973343 174.527374,137.833984 
	C172.194290,140.153015 170.475266,142.697235 173.193207,145.591751 
	C175.869370,148.441742 178.496399,147.178055 180.949585,144.780792 
	C191.430374,134.538925 201.948029,124.334518 212.494553,114.160316 
	C216.566528,110.232101 220.598969,106.240234 224.919174,102.597275 
	C231.605377,96.959251 239.714630,97.690399 245.880096,104.166733 
	C251.698090,110.278053 251.612976,118.329292 245.634415,124.719948 
	C244.155151,126.301163 242.611450,127.822823 241.078430,129.352890 
	C225.393295,145.007919 209.688278,160.643066 194.027145,176.322052 
	C189.940216,180.413620 188.813904,186.455536 192.046371,190.283859 
	C195.899460,194.847198 200.228363,199.083252 204.814529,202.905029 
	C206.089752,203.967697 209.006409,203.060577 211.170029,203.057175 
	C211.164200,200.642715 211.910507,197.863358 210.961227,195.906586 
	C209.787491,193.487152 207.219162,191.737579 205.229874,189.721741 
	C199.634323,184.051636 199.599030,184.025299 205.302948,178.402512 
	C221.078583,162.851242 236.942490,147.388992 252.647430,131.766815 
	C259.754303,124.697418 262.051392,116.004623 258.908997,106.506134 
	C255.804230,97.121384 249.298798,91.116356 239.122345,89.731880 
	C236.540771,89.380661 233.979752,88.878441 231.314789,88.429695 
	C231.224274,86.988892 231.162140,85.843353 231.078918,84.699348 
	C230.318192,74.242416 225.110138,66.708466 215.469467,62.850590 
	C206.157516,59.124264 196.875198,59.951836 189.404831,67.053818 
	C169.853928,85.640617 150.629044,104.570229 131.260437,123.349014 
	C128.821625,125.713547 127.590393,128.465500 130.106155,131.213531 
	C132.690933,134.036957 135.560974,132.853073 137.993301,130.558258 
	C141.264145,127.472328 144.474304,124.322098 148.294357,120.801788 
M219.445755,135.945602 
	C225.329788,130.056274 231.200256,124.153313 237.104492,118.284286 
	C239.493866,115.909142 240.755081,113.489059 237.969177,110.548569 
	C235.196838,107.622421 232.747299,109.361176 230.591476,111.255623 
	C227.219925,114.218445 224.075668,117.439575 220.827728,120.543541 
	C209.403458,131.461380 197.841110,142.239273 186.598160,153.340698 
	C179.339920,160.507599 166.023209,155.424454 163.109100,146.215530 
	C161.025742,139.631897 163.062759,134.521973 167.674652,129.992874 
	C181.092865,116.815605 194.510483,103.637680 207.949936,90.482094 
	C210.603180,87.884865 211.380478,84.939140 208.677109,82.205345 
	C206.123260,79.622780 203.576111,81.032036 201.312149,83.247528 
	C187.513702,96.750542 173.646149,110.183083 159.877319,123.716125 
	C154.384003,129.115387 151.392578,135.736206 152.241455,143.499939 
	C153.396591,154.064774 159.158203,161.524124 169.231934,164.881363 
	C178.981964,168.130737 188.031357,166.069748 195.595627,158.972687 
	C203.481964,151.573441 211.169693,143.962494 219.445755,135.945602 
z" data-index="1" style="opacity: 1;"></path>
<path fill="#3497D5" opacity="1.000000" stroke="none" d="
M148.002441,121.000626 
	C144.474304,124.322098 141.264145,127.472328 137.993301,130.558258 
	C135.560974,132.853073 132.690933,134.036957 130.106155,131.213531 
	C127.590393,128.465500 128.821625,125.713547 131.260437,123.349014 
	C150.629044,104.570229 169.853928,85.640617 189.404831,67.053818 
	C196.875198,59.951836 206.157516,59.124264 215.469467,62.850590 
	C225.110138,66.708466 230.318192,74.242416 231.078918,84.699348 
	C231.162140,85.843353 231.224274,86.988892 231.314789,88.429695 
	C233.979752,88.878441 236.540771,89.380661 239.122345,89.731880 
	C249.298798,91.116356 255.804230,97.121384 258.908997,106.506134 
	C262.051392,116.004623 259.754303,124.697418 252.647430,131.766815 
	C236.942490,147.388992 221.078583,162.851242 205.302948,178.402512 
	C199.599030,184.025299 199.634323,184.051636 205.229874,189.721741 
	C207.219162,191.737579 209.787491,193.487152 210.961227,195.906586 
	C211.910507,197.863358 211.164200,200.642715 211.170013,203.057175 
	C209.006409,203.060577 206.089752,203.967697 204.814529,202.905029 
	C200.228363,199.083252 195.899460,194.847198 192.046371,190.283859 
	C188.813904,186.455536 189.940216,180.413620 194.027145,176.322052 
	C209.688278,160.643066 225.393295,145.007919 241.078430,129.352890 
	C242.611450,127.822823 244.155151,126.301163 245.634415,124.719948 
	C251.612976,118.329292 251.698090,110.278053 245.880096,104.166733 
	C239.714630,97.690399 231.605377,96.959251 224.919174,102.597275 
	C220.598969,106.240234 216.566528,110.232101 212.494553,114.160316 
	C201.948029,124.334518 191.430374,134.538925 180.949585,144.780792 
	C178.496399,147.178055 175.869370,148.441742 173.193207,145.591751 
	C170.475266,142.697235 172.194290,140.153015 174.527374,137.833984 
	C188.472015,123.973343 202.149368,109.831306 216.435181,96.332710 
	C221.990891,91.083138 222.146027,80.706497 217.172256,75.653038 
	C211.193527,69.578568 202.033752,68.869896 195.681900,74.932343 
	C180.380966,89.536095 165.318802,104.389992 150.155655,119.138199 
	C149.559677,119.717865 148.915878,120.248375 148.002441,121.000626 
z" data-index="2"></path>
<path fill="#3497D5" opacity="1.000000" stroke="none" d="
M219.195007,136.194855 
	C211.169693,143.962494 203.481964,151.573441 195.595627,158.972687 
	C188.031357,166.069748 178.981964,168.130737 169.231934,164.881363 
	C159.158203,161.524124 153.396591,154.064774 152.241455,143.499939 
	C151.392578,135.736206 154.384003,129.115387 159.877319,123.716125 
	C173.646149,110.183083 187.513702,96.750542 201.312149,83.247528 
	C203.576111,81.032036 206.123260,79.622780 208.677109,82.205345 
	C211.380478,84.939140 210.603180,87.884865 207.949936,90.482094 
	C194.510483,103.637680 181.092865,116.815605 167.674652,129.992874 
	C163.062759,134.521973 161.025742,139.631897 163.109100,146.215530 
	C166.023209,155.424454 179.339920,160.507599 186.598160,153.340698 
	C197.841110,142.239273 209.403458,131.461380 220.827728,120.543541 
	C224.075668,117.439575 227.219925,114.218445 230.591476,111.255623 
	C232.747299,109.361176 235.196838,107.622421 237.969177,110.548569 
	C240.755081,113.489059 239.493866,115.909142 237.104492,118.284286 
	C231.200256,124.153313 225.329788,130.056274 219.195007,136.194855 
z" data-index="3"></path>
</svg>